<svg xmlns="http://www.w3.org/2000/svg" xmlns:xlink="http://www.w3.org/1999/xlink" width="101" height="101" viewBox="0 0 101 101">
  <defs>
    <clipPath id="clip-path">
      <rect id="Rectangle_670" data-name="Rectangle 670" width="101" height="101" transform="translate(0 0.138)" fill="#4465f5"/>
    </clipPath>
  </defs>
  <g id="Group_2547" data-name="Group 2547" transform="translate(0 -0.138)">
    <g id="Group_2546" data-name="Group 2546" clip-path="url(#clip-path)">
      <path id="Path_4383" data-name="Path 4383" d="M298.507,123.209a1.237,1.237,0,0,0-.27-1.725l-15.788-11.5a1.235,1.235,0,0,0-1.455,1.995l15.788,11.5a1.24,1.24,0,0,0,1.725-.27" transform="translate(-223.752 -87.552)" fill="#4465f5"/>
      <path id="Path_4384" data-name="Path 4384" d="M318.014,268.8a1.241,1.241,0,0,0-1.725-.27l-15.788,11.5a1.234,1.234,0,0,0,1.455,1.995l15.788-11.5a1.237,1.237,0,0,0,.27-1.725" transform="translate(-239.314 -214.027)" fill="#4465f5"/>
      <path id="Path_4385" data-name="Path 4385" d="M129.5,123.209a1.24,1.24,0,0,0,1.725.27l15.788-11.5a1.235,1.235,0,0,0-1.455-1.995l-15.788,11.5a1.237,1.237,0,0,0-.27,1.725" transform="translate(-103.118 -87.552)" fill="#4465f5"/>
      <path id="Path_4386" data-name="Path 4386" d="M201.567,23.927a1.234,1.234,0,0,0,1.233-1.233V11.1a1.237,1.237,0,0,0-.549-1.026L187.45.206a1.239,1.239,0,0,0-1.368,0l-14.8,9.867a1.237,1.237,0,0,0-.549,1.026V22.693a1.233,1.233,0,1,0,2.467,0V13.4l12.334,8.223v11.84l-6.427-4.254a1.233,1.233,0,0,0-1.358,2.057l8.335,5.524a1.222,1.222,0,0,0,1.368,0l8.335-5.524a1.233,1.233,0,0,0-1.358-2.057L188,33.466V21.626L200.333,13.4v9.29a1.234,1.234,0,0,0,1.233,1.233m-14.8-4.442L174.189,11.1l12.577-8.386L199.343,11.1Z" transform="translate(-136.197 0)" fill="#4465f5"/>
      <path id="Path_4387" data-name="Path 4387" d="M202.8,328.161a1.23,1.23,0,0,0-.549-1.026l-14.8-9.867a1.221,1.221,0,0,0-1.368,0l-14.8,9.867a1.23,1.23,0,0,0-.549,1.026v14.8a1.231,1.231,0,0,0,.549,1.026l14.8,9.867a1.222,1.222,0,0,0,1.368,0l14.8-9.867a1.231,1.231,0,0,0,.549-1.026Zm-17.267,22.36L173.2,342.3V330.466l12.334,8.223Zm1.233-13.976-12.577-8.383,12.577-8.383,12.577,8.383Zm13.567,5.755L188,350.521V338.689l12.334-8.223Z" transform="translate(-136.197 -252.925)" fill="#4465f5"/>
      <path id="Path_4388" data-name="Path 4388" d="M.549,185.465l14.8,9.867a1.221,1.221,0,0,0,1.368,0l8.335-5.526a1.231,1.231,0,0,0-1.358-2.052l-6.427,4.252v-11.84L29.6,171.943v9.287a1.233,1.233,0,0,0,2.467,0V169.638a1.237,1.237,0,0,0-.549-1.026l-14.8-9.867a1.239,1.239,0,0,0-1.368,0l-14.8,9.867A1.237,1.237,0,0,0,0,169.638v14.8a1.23,1.23,0,0,0,.549,1.026m15.485-24.213,12.577,8.386-12.577,8.383L3.457,169.638ZM2.467,171.943,14.8,180.165V192L2.467,183.779Z" transform="translate(0 -126.47)" fill="#4465f5"/>
      <path id="Path_4389" data-name="Path 4389" d="M372.983,168.607l-14.8-9.867a1.24,1.24,0,0,0-1.368,0l-14.8,9.867a1.237,1.237,0,0,0-.549,1.026v11.592a1.233,1.233,0,0,0,2.467,0v-9.287l12.334,8.223V192l-6.427-4.252a1.231,1.231,0,1,0-1.359,2.052l8.335,5.526a1.222,1.222,0,0,0,1.368,0l14.8-9.867a1.231,1.231,0,0,0,.549-1.026v-14.8a1.237,1.237,0,0,0-.549-1.026m-15.485,9.41-12.577-8.384,12.577-8.386,12.577,8.386Zm13.567,5.757-12.334,8.221V180.161l12.334-8.223Z" transform="translate(-272.394 -126.467)" fill="#4465f5"/>
      <path id="Path_4390" data-name="Path 4390" d="M109.993,268.8a1.237,1.237,0,0,0,.27,1.725l15.788,11.5a1.234,1.234,0,1,0,1.455-1.995l-15.788-11.5a1.241,1.241,0,0,0-1.725.27" transform="translate(-87.556 -214.027)" fill="#4465f5"/>
    </g>
  </g>
</svg>
