<svg id="Group_2554" data-name="Group 2554" xmlns="http://www.w3.org/2000/svg" xmlns:xlink="http://www.w3.org/1999/xlink" width="94" height="94" viewBox="0 0 94 94">
  <defs>
    <clipPath id="clip-path">
      <rect id="Rectangle_674" data-name="Rectangle 674" width="94" height="94" fill="none" stroke="#9a18c5" stroke-width="3"/>
    </clipPath>
  </defs>
  <g id="Group_2549" data-name="Group 2549">
    <g id="Group_2548" data-name="Group 2548" clip-path="url(#clip-path)">
      <rect id="Rectangle_671" data-name="Rectangle 671" width="8" height="7" transform="translate(43 85)" fill="none" stroke="#9a18c5" stroke-width="3"/>
      <rect id="Rectangle_672" data-name="Rectangle 672" width="8" height="7" transform="translate(65 85)" fill="none" stroke="#9a18c5" stroke-width="3"/>
      <rect id="Rectangle_673" data-name="Rectangle 673" width="7" height="8" transform="translate(85 65)" fill="none" stroke="#9a18c5" stroke-width="3"/>
    </g>
  </g>
  <line id="Line_41" data-name="Line 41" y2="36" transform="translate(47 49)" fill="none" stroke="#9a18c5" stroke-width="3"/>
  <path id="Path_4391" data-name="Path 4391" d="M11,20v9.832H62.129V20" transform="translate(10.631 19.33)" fill="none" stroke="#9a18c5" stroke-width="3"/>
  <line id="Line_42" data-name="Line 42" x2="24" transform="translate(35 41)" fill="none" stroke="#9a18c5" stroke-width="3"/>
  <path id="Path_4392" data-name="Path 4392" d="M41.765,60.4V52.531H28V25" transform="translate(27.062 24.162)" fill="none" stroke="#9a18c5" stroke-width="3"/>
  <path id="Path_4393" data-name="Path 4393" d="M32,25V44.665H53.631" transform="translate(30.928 24.162)" fill="none" stroke="#9a18c5" stroke-width="3"/>
  <g id="Group_2551" data-name="Group 2551">
    <g id="Group_2550" data-name="Group 2550" clip-path="url(#clip-path)">
      <rect id="Rectangle_675" data-name="Rectangle 675" width="7" height="7" transform="translate(22 85)" fill="none" stroke="#9a18c5" stroke-width="3"/>
      <rect id="Rectangle_676" data-name="Rectangle 676" width="8" height="8" transform="translate(2 65)" fill="none" stroke="#9a18c5" stroke-width="3"/>
    </g>
  </g>
  <path id="Path_4394" data-name="Path 4394" d="M13,60.4V52.531H26.765V25" transform="translate(12.564 24.162)" fill="none" stroke="#9a18c5" stroke-width="3"/>
  <path id="Path_4395" data-name="Path 4395" d="M26.631,25V44.665H5" transform="translate(4.832 24.162)" fill="none" stroke="#9a18c5" stroke-width="3"/>
  <g id="Group_2553" data-name="Group 2553">
    <g id="Group_2552" data-name="Group 2552" clip-path="url(#clip-path)">
      <path id="Path_4396" data-name="Path 4396" d="M67.861,56.062h5.9a17.7,17.7,0,1,0-6.218-34.252,24.55,24.55,0,0,0-48.8,2.93,15.726,15.726,0,1,0-2.01,31.322H24.6" transform="translate(0.966 0.966)" fill="none" stroke="#9a18c5" stroke-width="3"/>
      <path id="Path_4397" data-name="Path 4397" d="M14,21.715A16.716,16.716,0,0,1,30.715,5" transform="translate(13.531 4.832)" fill="none" stroke="#9a18c5" stroke-width="3"/>
    </g>
  </g>
</svg>
