<svg xmlns="http://www.w3.org/2000/svg" xmlns:xlink="http://www.w3.org/1999/xlink" width="99.72" height="90.61" viewBox="0 0 99.72 90.61">
  <defs>
    <clipPath id="clip-path">
      <rect id="Rectangle_680" data-name="Rectangle 680" width="99.72" height="90.61" fill="#34ffff"/>
    </clipPath>
  </defs>
  <g id="Group_2558" data-name="Group 2558" transform="translate(0 0)">
    <g id="Group_2557" data-name="Group 2557" transform="translate(0 0)" clip-path="url(#clip-path)">
      <path id="Path_4398" data-name="Path 4398" d="M22.278,28.618h10.2a1.089,1.089,0,1,0,0-2.179h-10.2a1.089,1.089,0,1,0,0,2.179" transform="translate(5.967 7.445)" fill="#34ffff"/>
      <path id="Path_4399" data-name="Path 4399" d="M22.278,34.873H36a1.089,1.089,0,1,0,0-2.179H22.278a1.089,1.089,0,1,0,0,2.179" transform="translate(5.967 9.207)" fill="#34ffff"/>
      <path id="Path_4400" data-name="Path 4400" d="M50.1,38.748H22.278a1.089,1.089,0,1,0,0,2.179H50.1a1.089,1.089,0,0,0,0-2.179" transform="translate(5.967 10.912)" fill="#34ffff"/>
      <path id="Path_4401" data-name="Path 4401" d="M57.638,26.439h-10.2a1.089,1.089,0,0,0,0,2.179h10.2a1.089,1.089,0,1,0,0-2.179" transform="translate(13.052 7.445)" fill="#34ffff"/>
      <path id="Path_4402" data-name="Path 4402" d="M57.638,38.748h-10.2a1.089,1.089,0,0,0,0,2.179h10.2a1.089,1.089,0,1,0,0-2.179" transform="translate(13.052 10.912)" fill="#34ffff"/>
      <path id="Path_4403" data-name="Path 4403" d="M34.85,28.618h10.2a1.089,1.089,0,1,0,0-2.179H34.85a1.089,1.089,0,0,0,0,2.179" transform="translate(9.507 7.445)" fill="#34ffff"/>
      <path id="Path_4404" data-name="Path 4404" d="M59.963,32.694H39.18a1.089,1.089,0,1,0,0,2.179H59.963a1.089,1.089,0,1,0,0-2.179" transform="translate(10.727 9.207)" fill="#34ffff"/>
      <path id="Path_4405" data-name="Path 4405" d="M19.89,22.053a1.089,1.089,0,1,0,0-2.179H13.271a1.09,1.09,0,0,0-1.089,1.089V53.307A1.09,1.09,0,0,0,13.271,54.4H19.89a1.089,1.089,0,1,0,0-2.179H14.361V22.053Z" transform="translate(3.431 5.596)" fill="#34ffff"/>
      <path id="Path_4406" data-name="Path 4406" d="M66.47,19.564H59.851a1.089,1.089,0,0,0,0,2.179H65.38V51.908H59.851a1.089,1.089,0,0,0,0,2.179H66.47A1.09,1.09,0,0,0,67.559,53V20.653a1.09,1.09,0,0,0-1.089-1.089" transform="translate(16.548 5.509)" fill="#34ffff"/>
      <path id="Path_4407" data-name="Path 4407" d="M1.089,77.69H72.124a7.441,7.441,0,0,0,1.99,3.671,7.576,7.576,0,0,0,9.945.693L92.3,90.291a1.089,1.089,0,0,0,1.54-1.54l-8.227-8.227A7.464,7.464,0,0,0,86.9,77.69H98.63A1.089,1.089,0,0,0,99.72,76.6V1.089A1.09,1.09,0,0,0,98.63,0H1.089A1.09,1.09,0,0,0,0,1.089V76.6A1.089,1.089,0,0,0,1.089,77.69m74.565,2.13a5.529,5.529,0,0,1,0-7.711A5.427,5.427,0,0,1,84.908,76.5a5.37,5.37,0,0,1-1.54,3.324,5.46,5.46,0,0,1-7.713,0m11.437-4.309a7.548,7.548,0,0,0-2.184-4.944,7.641,7.641,0,0,0-10.794,0,7.545,7.545,0,0,0-2.184,4.944H2.179v-64.5H97.541v64.5ZM97.541,8.829H2.179V2.179H97.541Z" transform="translate(0 0)" fill="#34ffff"/>
    </g>
  </g>
</svg>
