<svg id="Group_2560" data-name="Group 2560" xmlns="http://www.w3.org/2000/svg" xlink="http://www.w3.org/1999/xlink" width="61.649" height="61.648" viewBox="0 0 61.649 61.648">
  <defs>
    <clipPath id="clip-path">
      <rect id="Rectangle_639" data-name="Rectangle 639" width="61.649" height="61.648" fill="#34ffff"/>
    </clipPath>
  </defs>
  <g id="Group_2517" data-name="Group 2517" clip-path="url(#clip-path)">
    <path id="Path_4239" data-name="Path 4239" d="M52.185,61.648H9.463A9.472,9.472,0,0,1,0,52.185V9.462A9.474,9.474,0,0,1,9.463,0H52.187a9.472,9.472,0,0,1,9.463,9.462V52.185a9.47,9.47,0,0,1-9.463,9.462ZM9.463,3.367A6.1,6.1,0,0,0,3.371,9.459V52.185a6.1,6.1,0,0,0,6.092,6.092H52.186a6.1,6.1,0,0,0,6.092-6.092V9.462A6.1,6.1,0,0,0,52.187,3.37H9.463Z" fill="#34ffff"/>
    <path id="Path_4240" data-name="Path 4240" d="M37.492,57.082A1.684,1.684,0,0,1,36.3,54.207l6.844-6.839L36.3,40.526a1.685,1.685,0,0,1,2.385-2.382l8.034,8.031a1.684,1.684,0,0,1,0,2.38l-8.033,8.034a1.684,1.684,0,0,1-1.193.493Z" transform="translate(4.516 -16.804)" fill="#34ffff"/>
    <path id="Path_4411" data-name="Path 4411" d="M1.686,19.431A1.684,1.684,0,0,1,.494,16.557L7.338,9.717.494,2.876A1.685,1.685,0,0,1,2.879.494l8.034,8.031a1.684,1.684,0,0,1,0,2.38L2.879,18.939a1.684,1.684,0,0,1-1.193.493Z" transform="translate(22.597 40.278) rotate(180)" fill="#34ffff"/>
    <path id="Path_4241" data-name="Path 4241" d="M10.326,3.371H1.685A1.685,1.685,0,1,1,1.685,0H23.359a1.685,1.685,0,1,1,0,3.371" transform="translate(25.753 42.396) rotate(-74)" fill="#34ffff"/>
  </g>
</svg>
